M48
; DRILL file {KiCad 9.0.2} date 2026-01-12T13:18:19-0500
; FORMAT={-:-/ absolute / metric / decimal}
; #@! TF.CreationDate,2026-01-12T13:18:19-05:00
; #@! TF.GenerationSoftware,Kicad,Pcbnew,9.0.2
; #@! TF.FileFunction,Plated,1,4,PTH
FMAT,2
METRIC
; #@! TA.AperFunction,Plated,PTH,ComponentDrill
T1C0.800
; #@! TA.AperFunction,Plated,PTH,ComponentDrill
T2C1.000
; #@! TA.AperFunction,Plated,PTH,ComponentDrill
T3C1.200
%
G90
G05
T1
X55.5Y-127.0
X55.5Y-134.0
X55.5Y-141.0
X70.5Y-127.0
X70.5Y-134.0
X70.5Y-141.0
X117.0Y-132.0
X117.5Y-179.5
X120.69Y-152.5
X120.69Y-167.5
X132.0Y-132.0
X132.5Y-179.5
T2
X55.5Y-120.0
X56.0Y-163.0
X56.0Y-175.7
X56.273Y-153.0
X56.46Y-158.0
X56.46Y-180.0
X59.0Y-158.0
X59.0Y-163.0
X59.0Y-175.7
X59.0Y-180.0
X61.353Y-153.0
X61.38Y-167.0
X61.38Y-175.0
X63.46Y-159.0
X63.46Y-163.0
X63.46Y-171.0
X63.46Y-178.0
X63.46Y-181.5
X65.46Y-153.0
X68.54Y-159.0
X68.54Y-163.0
X68.54Y-171.0
X68.54Y-178.0
X68.54Y-181.5
X69.0Y-167.0
X69.0Y-175.0
X70.54Y-153.0
X72.65Y-144.0
X72.65Y-160.0
X72.65Y-163.2
X72.65Y-166.25
X72.65Y-169.0
X72.65Y-175.25
X74.73Y-111.73
X74.73Y-114.27
X75.5Y-120.0
X77.73Y-122.0
X77.73Y-125.0
X77.73Y-128.0
X77.73Y-138.0
X77.73Y-141.0
X77.73Y-154.0
X77.73Y-157.0
X77.73Y-172.0
X77.73Y-178.5
X77.73Y-181.5
X80.27Y-131.0
X80.27Y-134.5
X80.73Y-149.0
X81.0Y-113.46
X81.0Y-118.54
X83.27Y-149.0
X85.0Y-113.46
X85.0Y-118.54
X85.35Y-122.0
X85.35Y-125.0
X85.35Y-128.0
X85.35Y-131.0
X85.35Y-134.5
X85.35Y-138.0
X85.35Y-141.0
X85.35Y-144.0
X85.35Y-154.0
X85.35Y-157.0
X85.35Y-160.0
X85.35Y-163.2
X85.35Y-166.25
X85.35Y-169.0
X85.35Y-172.0
X85.35Y-175.25
X85.35Y-178.5
X85.35Y-181.5
X90.19Y-145.46
X90.19Y-148.0
X90.19Y-150.54
X90.19Y-153.08
X90.19Y-157.0
X90.19Y-159.54
X90.19Y-162.08
X90.19Y-164.62
X90.19Y-169.19
X90.19Y-171.73
X90.19Y-174.27
X90.19Y-176.81
X92.0Y-135.19
X92.0Y-142.81
X92.73Y-126.0
X95.27Y-126.0
X96.0Y-117.0
X96.19Y-135.19
X96.19Y-142.81
X97.81Y-145.46
X97.81Y-148.0
X97.81Y-150.54
X97.81Y-153.08
X97.81Y-157.0
X97.81Y-159.54
X97.81Y-162.08
X97.81Y-164.62
X97.81Y-169.19
X97.81Y-171.73
X97.81Y-174.27
X97.81Y-176.81
X101.0Y-120.0
X101.0Y-123.0
X101.0Y-126.0
X101.0Y-129.25
X102.0Y-175.0
X102.0Y-178.5
X102.0Y-181.5
X102.69Y-154.0
X102.69Y-157.0
X102.69Y-160.0
X102.69Y-163.0
X102.69Y-166.0
X102.69Y-169.0
X102.69Y-172.0
X102.92Y-132.0
X102.92Y-135.0
X102.92Y-138.0
X102.92Y-141.0
X103.0Y-144.0
X103.46Y-149.0
X106.0Y-149.0
X108.0Y-132.0
X108.0Y-135.0
X108.0Y-138.0
X108.0Y-141.0
X108.62Y-120.0
X108.62Y-123.0
X108.7Y-117.0
X110.31Y-154.0
X110.31Y-157.0
X110.31Y-160.0
X110.31Y-166.0
X110.46Y-149.0
X112.0Y-121.0
X112.0Y-139.0
X112.85Y-169.0
X112.85Y-172.0
X113.0Y-149.0
X113.7Y-126.0
X113.7Y-129.25
X114.0Y-111.73
X114.0Y-114.27
X114.0Y-154.46
X114.0Y-159.54
X114.7Y-175.0
X114.7Y-178.5
X114.7Y-181.5
X115.39Y-163.0
X115.7Y-144.0
X116.19Y-170.0
X116.38Y-173.0
X116.92Y-126.0
X119.46Y-144.0
X122.0Y-126.0
X123.81Y-170.0
X124.0Y-173.0
X124.54Y-144.0
X125.92Y-126.0
X129.0Y-152.5
X129.0Y-172.5
X131.0Y-126.0
X131.0Y-144.46
X131.0Y-149.54
X132.0Y-121.0
X132.0Y-139.0
T3
X60.38Y-114.0
X60.38Y-149.0
X64.19Y-114.0
X64.19Y-149.0
X68.0Y-114.0
X68.0Y-149.0
X89.0Y-181.0
X90.15Y-114.0
X91.42Y-132.0
X92.25Y-181.0
X93.96Y-114.0
X93.96Y-132.0
X95.5Y-181.0
X96.5Y-132.0
X97.77Y-114.0
X98.75Y-181.0
X119.38Y-114.0
X119.38Y-149.0
X123.19Y-114.0
X123.19Y-149.0
X127.0Y-114.0
X127.0Y-149.0
M30
